<?xml version="1.0" encoding="UTF-8"?>
<svg id="Layer_1" data-name="Layer 1" xmlns="http://www.w3.org/2000/svg" viewBox="0 0 480.42 204.6">
  <defs>
    <style>
      .cls-1 {
        fill: #000;
        stroke-width: 0px;
      }
    </style>
  </defs>
  <g>
    <path class="cls-1" d="M22.51,7.19c8.7,0,14.73.93,20.42,5.92,6.27,5.57,7.89,13.11,7.89,18.68,0,3.02-.46,11.37-6.38,17.29-4.29,4.29-10.67,6.84-19.61,6.84h-9.75v28.66H0V7.19h22.51ZM15.08,42.93h6.15c2.9,0,6.61,0,9.86-2.44,2.79-2.2,4.18-5.69,4.18-9.05,0-4.29-2.09-7.19-4.29-8.82-3.13-2.2-7.08-2.44-10.67-2.44h-5.22v22.74Z"/>
    <path class="cls-1" d="M74.02,34.34v28.43c0,2.67.23,6.27,3.02,8.82,1.74,1.51,4.52,2.55,7.19,2.55s5.45-1.04,7.19-2.55c2.78-2.55,3.02-6.15,3.02-8.82v-28.43h14.15v30.75c0,4.53-.58,10.56-6.15,15.43-4.64,4.06-12.07,5.69-18.22,5.69s-13.58-1.62-18.22-5.69c-5.57-4.87-6.15-10.91-6.15-15.43v-30.75h14.15Z"/>
    <path class="cls-1" d="M122.05,34.34h14.15v7.54c2.2-4.29,5.22-6.38,6.27-6.96,2.2-1.39,4.99-2.2,8.35-2.2,2.44,0,4.41.58,6.03,1.16l-1.86,13.23c-1.86-1.28-3.71-1.86-6.61-1.86-2.67,0-6.61.58-9.4,4.06-2.67,3.36-2.79,7.66-2.79,11.14v24.13h-14.15v-50.24Z"/>
    <path class="cls-1" d="M210.69,70.54c-1.51,3.71-7.19,15.66-24.71,15.66-8.12,0-14.27-2.32-19.26-7.08-5.57-5.22-7.89-11.72-7.89-19.61,0-9.98,4.06-16.13,7.66-19.72,5.92-5.8,12.88-7.08,18.91-7.08,10.21,0,16.13,4.06,19.61,8.24,5.34,6.38,6.03,14.27,6.03,19.72v1.16h-37.59c0,3.02.81,6.27,2.44,8.47,1.51,2.09,4.64,4.76,10.09,4.76s9.4-2.55,11.72-6.61l13,2.09ZM197.69,52.79c-1.16-6.85-6.73-10.09-11.95-10.09s-10.68,3.36-11.83,10.09h23.78Z"/>
    <path class="cls-1" d="M262.08,24.83c-4.53-6.03-9.86-6.61-12.65-6.61-8.12,0-10.68,5.1-10.68,9.05,0,1.86.58,3.6,2.44,5.22,1.86,1.74,4.41,2.67,9.28,4.41,6.03,2.09,11.72,4.18,15.66,7.77,3.48,3.13,6.61,8.35,6.61,16.24,0,15.08-10.91,25.41-26.92,25.41-14.27,0-22.62-8.7-26.69-14.62l9.86-9.4c3.71,7.54,10.79,10.33,16.24,10.33,6.85,0,11.95-4.18,11.95-10.67,0-2.79-.93-4.99-3.02-6.96-2.9-2.67-7.54-4.18-11.95-5.68-4.06-1.39-8.93-3.25-12.88-6.73-2.55-2.2-6.15-6.5-6.15-14.39,0-11.37,7.66-22.74,24.83-22.74,4.87,0,14.04.93,21.93,9.05l-7.89,10.33Z"/>
    <path class="cls-1" d="M283.89,34.34h14.15v5.69c5.34-6.73,11.95-7.31,14.97-7.31,10.56,0,14.62,6.61,15.9,9.17,2.44-3.94,7.43-9.17,16.13-9.17,7.77,0,11.6,3.6,13.58,6.15,3.25,4.29,3.48,8.59,3.48,14.15v31.56h-14.16v-27.38c0-5.92-1.28-8.59-2.32-9.86-1.86-2.32-4.41-2.55-5.8-2.55-3.83,0-6.27,1.74-7.77,4.41-1.86,3.02-1.97,7.08-1.97,9.75v25.64h-14.16v-27.38c0-5.92-1.28-8.59-2.32-9.86-1.86-2.32-4.41-2.55-5.8-2.55-3.83,0-6.27,1.74-7.77,4.41-1.86,3.02-1.97,7.08-1.97,9.75v25.64h-14.15v-50.24Z"/>
    <path class="cls-1" d="M417.3,0v84.58h-14.15V0h14.15Z"/>
    <path class="cls-1" d="M480.07,70.54c-1.51,3.71-7.19,15.66-24.71,15.66-8.12,0-14.27-2.32-19.26-7.08-5.57-5.22-7.89-11.72-7.89-19.61,0-9.98,4.06-16.13,7.66-19.72,5.92-5.8,12.88-7.08,18.91-7.08,10.21,0,16.13,4.06,19.61,8.24,5.34,6.38,6.03,14.27,6.03,19.72v1.16h-37.59c0,3.02.81,6.27,2.44,8.47,1.51,2.09,4.64,4.76,10.09,4.76s9.4-2.55,11.72-6.61l13,2.09ZM467.07,52.79c-1.16-6.85-6.73-10.09-11.95-10.09s-10.68,3.36-11.83,10.09h23.78Z"/>
    <g>
      <path class="cls-1" d="M375.54,34.35v50.24h14.15v-50.24h-14.15Z"/>
      <path class="cls-1" d="M382.59,23.23v.04s.02,0,.02,0c1.83-4.64,5.5-8.32,10.15-10.14h.01s-.02-.01-.02-.01c-4.64-1.83-8.31-5.5-10.13-10.13v-.02s-.01,0-.01,0c-1.83,4.65-5.5,8.32-10.15,10.15h0s.03.01.03.01c4.62,1.83,8.27,5.48,10.1,10.1Z"/>
    </g>
  </g>
  <g>
    <path class="cls-1" d="M384.01,106.8c-.03-.23-.1-.43-.14-.64-.05-.23-.08-.44-.16-.64-.08-.24-.19-.47-.29-.71-.06-.14-.11-.29-.19-.42-.02-.03-.03-.06-.06-.1-.13-.23-.27-.43-.44-.63-.11-.18-.23-.34-.35-.5-.13-.15-.29-.27-.44-.4-.19-.18-.37-.37-.58-.53-.03-.02-.05-.05-.08-.06-.13-.1-.26-.14-.39-.23-.23-.15-.45-.29-.68-.4-.19-.1-.4-.16-.6-.24-.21-.08-.42-.16-.64-.21-.21-.06-.43-.1-.64-.13-.23-.03-.44-.08-.66-.1-.21,0-.42,0-.63.02-.24,0-.47,0-.69.03-.23.03-.43.08-.64.13-.21.05-.44.1-.64.18-.24.08-.48.19-.71.31-.14.06-.29.1-.42.18-74.38,40.94-142.88,38.88-187.25,29.94-48.32-9.73-79.44-29.5-79.74-29.7-.13-.08-.27-.13-.4-.21-.23-.13-.45-.26-.69-.35-.19-.08-.39-.13-.6-.19-.21-.06-.43-.14-.66-.19-.21-.03-.42-.06-.63-.08-.23-.03-.45-.05-.69-.05-.21,0-.4.02-.61.03-.23.02-.47.03-.69.08-.21.05-.42.1-.61.16-.23.06-.44.13-.66.21-.23.1-.45.21-.66.32-.14.08-.29.13-.42.21-.03.02-.06.05-.1.08-.23.13-.42.31-.61.47-.16.13-.32.24-.47.39s-.27.31-.4.47c-.16.19-.34.39-.48.6-.02.03-.05.06-.08.1-.08.13-.13.27-.19.4-.13.23-.26.45-.35.68-.08.21-.14.42-.21.63-.06.21-.13.42-.18.63-.05.23-.06.45-.1.68-.02.21-.03.43-.05.64,0,.23.03.44.05.66.02.21.03.43.08.66.03.23.1.44.16.64.06.21.11.42.19.61.1.24.23.47.34.71.08.13.13.26.21.39,2.29,3.69,57.02,90.2,138.7,93.22,1.47.06,2.92.08,4.37.08,49.42,0,97.28-31.23,142.28-92.88.1-.11.16-.26.24-.39.13-.23.27-.43.39-.66.1-.21.16-.4.24-.61s.16-.42.21-.63c.06-.23.1-.43.13-.66.03-.23.06-.44.08-.64.02-.23.02-.43,0-.64,0-.23-.02-.45-.03-.68ZM236.67,190.83c-48.98-1.79-88.57-38.48-110.05-63.58,14.2,6.11,33.48,12.96,56.77,17.69,16.13,3.29,35.27,5.7,56.65,5.7,15.08,0,31.28-1.21,48.29-4.19,3.06-2.16,5.14-5.48,5.72-9.2l.02-.03c.26-1.63,1.48-2.95,3.09-3.3.29-.06.58-.1.89-.1,1.31,0,2.58.64,3.34,1.77,2.16,3.19,5.59,5.37,9.41,5.96.03,0,.05.02.08.02,13.7-3.53,27.81-8.28,42.25-14.49-37.77,43.76-76.86,65.21-116.45,63.74Z"/>
    <path class="cls-1" d="M310.16,145.54l-.02.02c-4.12,2.79-6.9,7.17-7.67,12.1v.02h-.02c-2.79-4.14-7.19-6.93-12.12-7.7l.03-.02c1.9-1.29,3.5-2.9,4.75-4.75,1.48-2.18,2.48-4.66,2.9-7.32v-.03h.02c1.51,2.26,3.53,4.11,5.83,5.45,1.92,1.13,4.04,1.89,6.28,2.24Z"/>
  </g>
</svg>