<?xml version="1.0" encoding="UTF-8"?>
<svg id="Layer_1" data-name="Layer 1" xmlns="http://www.w3.org/2000/svg" viewBox="0 0 488.5 204.6">
  <defs>
    <style>
      .cls-1 {
        fill: #000;
        stroke-width: 0px;
      }
    </style>
  </defs>
  <path class="cls-1" d="M26.55,51.51c8.7,0,14.73.93,20.42,5.92,6.27,5.57,7.89,13.11,7.89,18.68,0,3.02-.46,11.37-6.38,17.29-4.29,4.29-10.67,6.84-19.61,6.84h-9.75v28.66H4.04V51.51h22.51ZM19.13,87.24h6.15c2.9,0,6.61,0,9.86-2.44,2.79-2.2,4.18-5.69,4.18-9.05,0-4.29-2.09-7.19-4.29-8.82-3.13-2.2-7.08-2.44-10.67-2.44h-5.22v22.74Z"/>
  <path class="cls-1" d="M78.06,78.66v28.43c0,2.67.23,6.27,3.02,8.82,1.74,1.51,4.52,2.55,7.19,2.55s5.45-1.04,7.19-2.55c2.78-2.55,3.02-6.15,3.02-8.82v-28.43h14.15v30.75c0,4.53-.58,10.56-6.15,15.43-4.64,4.06-12.07,5.69-18.22,5.69s-13.58-1.62-18.22-5.69c-5.57-4.87-6.15-10.91-6.15-15.43v-30.75h14.15Z"/>
  <path class="cls-1" d="M126.09,78.66h14.15v7.54c2.2-4.29,5.22-6.38,6.27-6.96,2.2-1.39,4.99-2.2,8.35-2.2,2.44,0,4.41.58,6.03,1.16l-1.86,13.23c-1.86-1.28-3.71-1.86-6.61-1.86-2.67,0-6.61.58-9.4,4.06-2.67,3.36-2.79,7.66-2.79,11.14v24.13h-14.15v-50.24Z"/>
  <path class="cls-1" d="M214.73,114.86c-1.51,3.71-7.19,15.66-24.71,15.66-8.12,0-14.27-2.32-19.26-7.08-5.57-5.22-7.89-11.72-7.89-19.61,0-9.98,4.06-16.13,7.66-19.72,5.92-5.8,12.88-7.08,18.91-7.08,10.21,0,16.13,4.06,19.61,8.24,5.34,6.38,6.03,14.27,6.03,19.72v1.16h-37.59c0,3.02.81,6.27,2.44,8.47,1.51,2.09,4.64,4.76,10.09,4.76s9.4-2.55,11.72-6.61l13,2.09ZM201.74,97.1c-1.16-6.85-6.73-10.09-11.95-10.09s-10.68,3.36-11.83,10.09h23.78Z"/>
  <path class="cls-1" d="M266.12,69.14c-4.53-6.03-9.86-6.61-12.65-6.61-8.12,0-10.68,5.1-10.68,9.05,0,1.86.58,3.6,2.44,5.22,1.86,1.74,4.41,2.67,9.28,4.41,6.03,2.09,11.72,4.18,15.66,7.77,3.48,3.13,6.61,8.35,6.61,16.24,0,15.08-10.91,25.41-26.92,25.41-14.27,0-22.62-8.7-26.69-14.62l9.86-9.4c3.71,7.54,10.79,10.33,16.24,10.33,6.85,0,11.95-4.18,11.95-10.67,0-2.79-.93-4.99-3.02-6.96-2.9-2.67-7.54-4.18-11.95-5.68-4.06-1.39-8.93-3.25-12.88-6.73-2.55-2.2-6.15-6.5-6.15-14.39,0-11.37,7.66-22.74,24.83-22.74,4.87,0,14.04.93,21.93,9.05l-7.89,10.33Z"/>
  <path class="cls-1" d="M287.93,78.66h14.15v5.69c5.34-6.73,11.95-7.31,14.97-7.31,10.56,0,14.62,6.61,15.9,9.17,2.44-3.94,7.43-9.17,16.13-9.17,7.77,0,11.6,3.6,13.58,6.15,3.25,4.29,3.48,8.59,3.48,14.15v31.56h-14.16v-27.38c0-5.92-1.28-8.59-2.32-9.86-1.86-2.32-4.41-2.55-5.8-2.55-3.83,0-6.27,1.74-7.77,4.41-1.86,3.02-1.97,7.08-1.97,9.75v25.64h-14.16v-27.38c0-5.92-1.28-8.59-2.32-9.86-1.86-2.32-4.41-2.55-5.8-2.55-3.83,0-6.27,1.74-7.77,4.41-1.86,3.02-1.97,7.08-1.97,9.75v25.64h-14.15v-50.24Z"/>
  <path class="cls-1" d="M421.35,44.31v84.58h-14.15V44.31h14.15Z"/>
  <path class="cls-1" d="M484.11,114.86c-1.51,3.71-7.19,15.66-24.71,15.66-8.12,0-14.27-2.32-19.26-7.08-5.57-5.22-7.89-11.72-7.89-19.61,0-9.98,4.06-16.13,7.66-19.72,5.92-5.8,12.88-7.08,18.91-7.08,10.21,0,16.13,4.06,19.61,8.24,5.34,6.38,6.03,14.27,6.03,19.72v1.16h-37.59c0,3.02.81,6.27,2.44,8.47,1.51,2.09,4.64,4.76,10.09,4.76s9.4-2.55,11.72-6.61l13,2.09ZM471.12,97.1c-1.16-6.85-6.73-10.09-11.95-10.09s-10.68,3.36-11.83,10.09h23.78Z"/>
  <g>
    <path class="cls-1" d="M379.58,78.66v50.24h14.15v-50.24h-14.15Z"/>
    <path class="cls-1" d="M386.64,67.54v.04s.02,0,.02,0c1.83-4.64,5.5-8.32,10.15-10.14h.01s-.02-.01-.02-.01c-4.64-1.83-8.31-5.5-10.13-10.13v-.02s-.01,0-.01,0c-1.83,4.65-5.5,8.32-10.15,10.15h0s.03.01.03.01c4.62,1.83,8.27,5.48,10.1,10.1Z"/>
  </g>
</svg>