<?xml version="1.0" encoding="UTF-8"?>
<svg id="Layer_1" data-name="Layer 1" xmlns="http://www.w3.org/2000/svg" viewBox="0 0 488.5 204.6">
  <defs>
    <style>
      .cls-1 {
        fill: #000;
        stroke-width: 0px;
      }
    </style>
  </defs>
  <path class="cls-1" d="M488.43,24.31c-.05-.37-.15-.73-.22-1.1-.08-.36-.17-.71-.29-1.07-.14-.42-.32-.82-.51-1.21-.1-.24-.17-.49-.31-.71-.03-.07-.08-.1-.1-.17-.22-.37-.49-.73-.75-1.07-.2-.29-.39-.58-.63-.83-.2-.25-.48-.46-.71-.7-.32-.31-.65-.63-1-.9-.05-.03-.08-.08-.14-.12-.2-.15-.44-.25-.65-.39-.39-.24-.76-.48-1.17-.68-.32-.15-.66-.27-.98-.39-.37-.14-.73-.27-1.1-.37s-.73-.15-1.09-.2c-.39-.07-.76-.14-1.14-.15-.36-.03-.71,0-1.07,0-.39.02-.78.02-1.17.07-.37.05-.73.14-1.09.22-.36.08-.73.17-1.09.29-.42.14-.82.32-1.22.51-.24.12-.48.19-.7.31-126.3,69.54-242.64,66.04-317.99,50.86C71.25,49.95,18.42,16.38,17.92,16.04c-.22-.14-.46-.22-.68-.34-.39-.2-.76-.42-1.17-.59-.34-.14-.68-.24-1.02-.34-.37-.12-.75-.24-1.12-.32-.36-.07-.71-.1-1.09-.14-.39-.05-.76-.08-1.15-.08-.36,0-.7.03-1.04.05-.41.03-.8.07-1.21.15-.34.05-.68.17-1.04.27-.37.1-.73.2-1.1.34-.39.15-.76.36-1.14.56-.24.12-.48.2-.7.34-.07.05-.12.1-.17.14-.37.24-.7.53-1.04.8-.27.22-.56.42-.8.66-.24.24-.46.53-.68.8-.29.32-.58.65-.82,1-.03.07-.08.12-.14.17-.14.22-.22.46-.36.7-.2.37-.41.75-.58,1.14-.15.36-.25.71-.36,1.07-.12.36-.22.71-.31,1.07-.07.39-.12.76-.15,1.14-.03.37-.08.73-.08,1.1s.03.73.07,1.1c.03.37.07.76.14,1.14.07.37.17.73.29,1.09.1.36.19.71.32,1.05.17.41.37.8.58,1.19.14.22.2.46.34.68,3.89,6.25,96.84,153.15,235.54,158.28,2.48.1,4.94.14,7.4.14,83.94,0,165.21-53.01,241.62-157.7.15-.22.25-.46.39-.68.24-.37.48-.73.66-1.12.17-.34.29-.7.42-1.04.12-.36.25-.71.36-1.07.1-.37.15-.75.22-1.12.05-.37.12-.73.14-1.1.02-.36,0-.73,0-1.09-.02-.39-.02-.76-.07-1.15ZM238.24,167.01c-83.17-3.04-150.42-65.36-186.89-107.97,24.11,10.36,56.87,21.99,96.38,30.04,27.39,5.57,59.89,9.7,96.21,9.7,27.08,0,56.29-2.29,87.04-8,3.82-3.87,6.38-8.92,7.25-14.35v-.07c.27-1.72,1.58-3.09,3.28-3.46.31-.07.61-.1.92-.1,1.39,0,2.72.68,3.52,1.87,3.18,4.69,7.79,8.2,13.09,10.05,24.88-6.16,50.62-14.64,76.94-25.95-64.14,74.29-130.52,110.72-197.74,108.24Z"/>
  <path class="cls-1" d="M363.04,90.09l-.02.03c-7.01,4.74-11.73,12.18-13.04,20.55v.03l-.02-.02c-4.75-7.03-12.21-11.75-20.58-13.06l.05-.03c3.21-2.17,5.94-4.92,8.07-8.07,2.53-3.68,4.23-7.93,4.94-12.43v-.05c2.6,3.84,6.03,7,9.95,9.27,3.24,1.88,6.86,3.18,10.63,3.77h.02Z"/>
</svg>